<svg xmlns="http://www.w3.org/2000/svg" viewBox="0 0 463 463"><path d="M455.5 416H439v-88.5c0-4.142-3.358-7.5-7.5-7.5H423v-16.5c0-8.547-6.953-15.5-15.5-15.5H375v-96.5c0-4.142-3.358-7.5-7.5-7.5h-9.402c-2.783-11.355-11.743-20.306-23.098-23.09V111.5c0-4.142-3.358-7.5-7.5-7.5s-7.5 3.358-7.5 7.5v49.41c-11.355 2.784-20.314 11.735-23.098 23.09H295v-64.5c0-2.667-1.417-5.134-3.72-6.48L199 59.193V39.5c0-4.142-3.358-7.5-7.5-7.5s-7.5 3.358-7.5 7.5V160h-48.5c-4.142 0-7.5 3.358-7.5 7.5v90.144l-90.32 22.58c-3.338.835-5.68 3.835-5.68 7.276V416H7.5c-4.142 0-7.5 3.358-7.5 7.5s3.358 7.5 7.5 7.5h448c4.142 0 7.5-3.358 7.5-7.5s-3.358-7.5-7.5-7.5zm-112-96c-4.142 0-7.5 3.358-7.5 7.5V376h-41v-65h57v9h-8.5zm80.5 64h-73v-17h73v17zm-70.055-88H295v-65h65v58.945c-2.54 1.412-4.643 3.514-6.055 6.055zM295 391h41v25h-41v-25zm56 8h73v17h-73v-17zm73-47h-73v-17h73v17zm-16-48.5V320h-41v-16.5c0-.276.224-.5.5-.5h40c.276 0 .5.224.5.5zM303.5 199c4.142 0 7.5-3.358 7.5-7.5 0-9.098 7.402-16.5 16.5-16.5s16.5 7.402 16.5 16.5c0 4.142 3.358 7.5 7.5 7.5h8.5v17h-65v-17h8.5zM199 76.558l81 47.25V416h-17V135.5c0-4.142-3.358-7.5-7.5-7.5s-7.5 3.358-7.5 7.5V416h-17V167.5c0-4.142-3.358-7.5-7.5-7.5H199V76.558zM216 335v17h-73v-17h73zm-73-15v-17h73v17h-73zm73-64h-73v-17h73v17zm0 15v17h-73v-17h73zm-73 96h73v17h-73v-17zm73-143h-73v-17h73v17zm-73 175h73v17h-73v-17zm73-224v17h-73v-17h73zM47 293.356l81-20.25V416h-17V311.5c0-4.142-3.358-7.5-7.5-7.5s-7.5 3.358-7.5 7.5V416H79v-96.5c0-4.142-3.358-7.5-7.5-7.5s-7.5 3.358-7.5 7.5V416H47V293.356z"/></svg>