<svg xmlns="http://www.w3.org/2000/svg" viewBox="0 0 60 60"><path d="M30 0C13.458 0 0 13.458 0 30s13.458 30 30 30 30-13.458 30-30S46.542 0 30 0zm0 58C14.56 58 2 45.44 2 30S14.56 2 30 2s28 12.56 28 28-12.56 28-28 28z"/><path d="M31 26.02V15.88c0-.554-.448-1-1-1s-1 .446-1 1v10.14c-1.4.365-2.494 1.46-2.858 2.86H19c-.552 0-1 .446-1 1s.448 1 1 1h7.142c.447 1.72 2 3 3.858 3 2.206 0 4-1.795 4-4 0-1.86-1.28-3.412-3-3.86zm-1 5.86c-1.103 0-2-.898-2-2s.897-2 2-2 2 .896 2 2-.897 2-2 2zM30 9.88c.552 0 1-.448 1-1v-1c0-.554-.448-1-1-1s-1 .446-1 1v1c0 .552.448 1 1 1zM30 49.88c-.552 0-1 .446-1 1v1c0 .552.448 1 1 1s1-.448 1-1v-1c0-.554-.448-1-1-1zM52 28.88h-1c-.552 0-1 .446-1 1s.448 1 1 1h1c.552 0 1-.448 1-1s-.448-1-1-1zM9 28.88H8c-.552 0-1 .446-1 1s.448 1 1 1h1c.552 0 1-.448 1-1s-.448-1-1-1zM44.85 13.615l-.708.707c-.39.39-.39 1.023 0 1.414.195.195.45.293.707.293s.51-.1.706-.294l.707-.707c.39-.392.39-1.024 0-1.415s-1.023-.39-1.414 0zM14.444 44.02l-.707.708c-.39.39-.39 1.023 0 1.414.195.195.45.293.707.293s.512-.098.707-.293l.708-.707c.39-.39.39-1.023 0-1.414s-1.024-.39-1.414 0zM45.556 44.02c-.39-.39-1.023-.39-1.414 0s-.39 1.024 0 1.415l.707.707c.194.195.45.293.706.293s.512-.098.707-.293c.39-.39.39-1.023 0-1.414l-.707-.707zM15.15 13.615c-.39-.39-1.022-.39-1.413 0s-.39 1.023 0 1.414l.707.706c.195.195.45.293.707.293s.513-.1.708-.294c.39-.39.39-1.023 0-1.414l-.707-.707z"/></svg>