<svg xmlns="http://www.w3.org/2000/svg" viewBox="0 0 58 58"><path d="M50.688 48.222C55.232 43.102 58 36.37 58 29c0-7.667-2.996-14.643-7.872-19.834-.004-.007-.01-.01-.013-.014-5.08-5.4-12.195-8.855-20.11-9.126L29.438.01C29.292.005 29.146 0 29 0s-.293.005-.44.01L28 .025C20.08.298 12.965 3.754 7.887 9.153c-.005.005-.01.007-.014.013v.002C2.995 14.357 0 21.333 0 29c0 7.37 2.768 14.1 7.312 19.222.006.01.006.02.013.028.018.025.044.037.063.06 5.106 5.708 12.432 9.385 20.608 9.665l.564.016c.147.005.293.01.44.01s.293-.005.44-.01l.562-.015c8.186-.282 15.52-3.966 20.626-9.686.013-.018.034-.023.046-.04.008-.01.008-.02.014-.028zM2.025 30h12.003c.113 4.24.94 8.358 2.415 12.217-2.844 1.03-5.563 2.41-8.11 4.13C4.584 41.892 2.252 36.21 2.024 30zm6.853-18.977c2.488 1.618 5.137 2.914 7.9 3.882-1.692 4.107-2.628 8.535-2.75 13.095H2.025c.24-6.507 2.787-12.432 6.853-16.977zM55.975 28H43.972c-.122-4.56-1.058-8.988-2.75-13.095 2.763-.968 5.412-2.264 7.9-3.882 4.066 4.545 6.614 10.47 6.853 16.977zM28 14.963c-2.89-.082-5.73-.513-8.47-1.283C21.555 9.522 24.417 5.77 28 2.644v12.32zm0 2V28H16.028c.123-4.348 1.035-8.565 2.666-12.475 3.006.87 6.127 1.353 9.306 1.438zm2 0c3.18-.085 6.3-.566 9.307-1.438 1.63 3.91 2.543 8.127 2.666 12.475H30V16.963zm0-2V2.643c3.582 3.126 6.444 6.88 8.47 11.037-2.74.77-5.58 1.2-8.47 1.283zm10.41-1.89C38.487 9.046 35.82 5.38 32.52 2.236c5.857.766 11.126 3.414 15.184 7.318-2.304 1.462-4.748 2.638-7.295 3.517zm-22.82 0c-2.546-.88-4.99-2.056-7.293-3.518 4.057-3.904 9.327-6.552 15.183-7.318-3.302 3.143-5.968 6.81-7.89 10.835zM16.03 30H28v10.038c-3.307.088-6.547.604-9.66 1.54-1.408-3.654-2.2-7.56-2.312-11.578zM28 42.038v13.318c-3.834-3.345-6.84-7.41-8.884-11.917 2.867-.846 5.845-1.316 8.884-1.402zm2 13.318V42.038c3.04.085 6.017.556 8.884 1.4-2.044 4.51-5.05 8.573-8.884 11.918zm0-15.318V30h11.972c-.113 4.02-.904 7.924-2.312 11.58-3.113-.938-6.353-1.454-9.66-1.542zM43.972 30h12.003c-.228 6.21-2.56 11.89-6.307 16.348-2.548-1.722-5.267-3.102-8.11-4.13 1.474-3.86 2.3-7.98 2.414-12.218zM9.692 47.846c2.365-1.572 4.884-2.836 7.516-3.78 1.945 4.36 4.737 8.332 8.27 11.697-6.15-.805-11.655-3.685-15.787-7.917zm22.83 7.917c3.533-3.364 6.325-7.337 8.27-11.698 2.632.945 5.15 2.21 7.517 3.78-4.133 4.233-9.638 7.113-15.79 7.918z"/></svg>