<svg xmlns="http://www.w3.org/2000/svg" viewBox="0 0 470 470"><path d="M366.044 77.267c-.53-.598-1.156-1.107-1.852-1.51-20.523-16.65-44.312-29.417-70.246-37.18-.438-.178-.898-.316-1.378-.41C274.37 32.856 255.14 30 235.252 30s-39.12 2.858-57.316 8.166c-.48.094-.94.232-1.378.41-27.776 8.316-53.094 22.367-74.572 40.784-.712.44-1.348.987-1.876 1.63C87.044 92.47 75.44 105.578 65.632 120c-.508.557-.932 1.188-1.254 1.88-21.55 32.443-34.126 71.338-34.126 113.12 0 37.23 9.98 72.173 27.4 102.298.28.686.656 1.32 1.116 1.888 25.31 42.71 65.673 75.49 113.733 90.98.408.175.836.312 1.277.414 19.415 6.116 40.065 9.42 61.474 9.42 29.6 0 57.746-6.314 83.182-17.65.63-.192 1.236-.46 1.797-.81 24.565-11.234 46.536-27.187 64.76-46.687.648-.502 1.213-1.105 1.667-1.79 19.654-21.534 34.778-47.264 43.874-75.667.196-.445.35-.912.455-1.396 6.02-19.276 9.266-39.765 9.266-60.998.002-63.366-28.898-120.102-74.206-157.735zm-83.727-26.364c-5.892 20.65-25.08 35.525-47.065 35.525S194.08 71.55 188.187 50.903C203.243 47.053 219.012 45 235.252 45s32.01 2.052 47.065 5.903zM108.894 93.24H155c8.522 0 15.456 6.933 15.456 15.455 0 6.44-4.057 12.267-10.096 14.5-2.944 1.09-4.9 3.896-4.9 7.035v76.88c-21.107.357-42.393.46-45.81.025-2.15-.457-4.402.055-6.15 1.41-1.833 1.42-2.905 3.608-2.905 5.927v14.47c0 6.046-4.918 10.964-10.963 10.964-6.045 0-10.963-4.918-10.963-10.963v-101.43c8.678-12.605 18.836-24.112 30.224-34.273zM63.67 153.445v75.497c0 11.71 7.792 21.628 18.462 24.854v19.607c-11.616 6.77-20.284 18.057-23.578 31.443-8.58-21.63-13.302-45.197-13.302-69.846 0-29.174 6.617-56.83 18.417-81.555zm8.424 178.812v-15.405c0-19.446 15.82-35.266 35.267-35.266 19.447 0 35.267 15.82 35.267 35.266v5.497c0 4.14 3.358 7.5 7.5 7.5h19.37c11.858 0 21.506 9.646 21.506 21.504 0 10.122-7.177 18.973-17.066 21.045-3.474.727-5.96 3.79-5.96 7.34v32.943c-40.27-15.297-74.03-43.903-95.883-80.426zm110.88 85.427v-32.402c13.645-5.442 23.028-18.855 23.028-33.928 0-20.13-16.376-36.505-36.506-36.505h-11.91c-1.055-26.792-23.18-48.264-50.226-48.264-3.504 0-6.925.363-10.23 1.05v-13.84c10.67-3.225 18.464-13.144 18.464-24.853v-6.602c8.22.175 21.54.1 39.866-.226v2.357c0 4.143 3.358 7.5 7.5 7.5s7.5-3.357 7.5-7.5v-89.54c9.143-5.41 14.995-15.38 14.995-26.236 0-16.793-13.662-30.455-30.455-30.455h-26.982c14.03-9.63 29.41-17.428 45.795-23.042 7.768 26.884 32.787 46.23 61.438 46.23s53.67-19.346 61.44-46.23c20.572 7.05 39.56 17.535 56.282 30.77l.288 24.43h-32.41c-4.142 0-7.5 3.36-7.5 7.5s3.358 7.5 7.5 7.5h12.5v13.087h-23.926c-.42 0-.838.035-1.252.105-13.124 2.223-23.403 14.39-23.403 27.7v13.942h-48.284c-4.142 0-7.5 3.358-7.5 7.5v21.4c0 19.514 15.876 35.39 35.39 35.39 14.165 0 26.732-8.378 32.334-20.968h58.485c6.925 11.87 18.81 20.017 32.28 22.246v13.94H260.46c-17.355 0-31.475 14.12-31.475 31.474s14.12 31.474 31.474 31.474h19.083v46.765c0 17.335 7.615 33.242 20.545 44.15-20.24 7.37-42.077 11.397-64.836 11.397-18.124 0-35.662-2.554-52.277-7.316zm204.928-69.687v-46.112h25.183c-6.262 16.596-14.778 32.093-25.183 46.112zm30.15-61.112H380.4c-4.142 0-7.5 3.358-7.5 7.5v71.45c-16.065 16.894-35.202 30.836-56.5 40.938-13.564-7.792-21.858-21.794-21.858-37.32v-54.266c0-4.142-3.358-7.5-7.5-7.5H260.46c-9.083 0-16.474-7.39-16.474-16.474s7.39-16.474 16.474-16.474h134.515c4.142 0 7.5-3.36 7.5-7.5v-28.325c0-4.142-3.358-7.5-7.5-7.5-12.236 0-23.37-7.23-28.36-18.418-1.206-2.703-3.89-4.444-6.85-4.444H292.17c-5.56 0-7.382 3.44-7.978 5.66l-.056-.015c-2.305 9.022-10.43 15.324-19.76 15.324-11.243 0-20.39-9.147-20.39-20.39v-13.9h48.283c4.14 0 7.5-3.358 7.5-7.5v-21.44c0-5.713 4.787-11.556 10.372-12.807h30.71c4.14 0 7.5-3.358 7.5-7.5V125.4h12.5c2.003 0 3.924-.803 5.333-2.23s2.188-3.355 2.165-5.36l-.218-18.472c35.224 34.51 57.12 82.573 57.12 135.662 0 17.98-2.51 35.387-7.2 51.885z"/><path d="M267.86 164.532c4.14 0 7.5-3.358 7.5-7.5v-7.813c0-4.143-3.36-7.5-7.5-7.5s-7.5 3.357-7.5 7.5v7.812c0 4.142 3.357 7.5 7.5 7.5z"/><path d="M462.735 242.516c-4.13-.268-7.702 2.864-7.972 6.997C447.26 364.74 350.84 455 235.253 455c-44.493 0-87.358-13.222-123.962-38.235-1.935-1.323-4.378-1.664-6.602-.923L29.272 440.98l25.14-75.415c.74-2.224.4-4.667-.924-6.603C28.474 322.356 15.252 279.492 15.252 235c0-121.31 98.69-220 220-220 115.587 0 212.008 90.26 219.51 205.488.27 4.134 3.844 7.276 7.973 6.997 4.133-.27 7.266-3.838 6.997-7.97-3.872-59.465-29.98-114.768-73.514-155.72C352.488 22.654 295.322 0 235.252 0c-62.77 0-121.784 24.444-166.17 68.83S.252 172.23.252 235c0 46.27 13.39 90.898 38.763 129.316l-28.717 86.15c-.898 2.694-.197 5.665 1.812 7.674 2.008 2.01 4.98 2.71 7.675 1.812l86.15-28.716C144.352 456.61 188.98 470 235.252 470c60.07 0 117.234-22.656 160.965-63.793 43.534-40.953 69.642-96.254 73.514-155.72.27-4.133-2.862-7.7-6.995-7.97z"/></svg>