<svg xmlns="http://www.w3.org/2000/svg" viewBox="0 0 502 502"><path d="M142.963 115.33c-3.906-3.905-10.238-3.905-14.143 0-3.905 3.906-3.905 10.238 0 14.143l45.063 45.063c1.952 1.953 4.512 2.93 7.07 2.93 2.56 0 5.12-.977 7.073-2.93 3.905-3.906 3.905-10.238 0-14.143l-45.063-45.063zM226.357 198.724l-13.468-13.468c-3.907-3.905-10.24-3.906-14.144 0-3.905 3.906-3.905 10.238 0 14.143l13.468 13.467c1.952 1.953 4.512 2.93 7.07 2.93 2.56 0 5.12-.977 7.073-2.93 3.905-3.906 3.905-10.238 0-14.143zM271.083 482h-43.87v-11c0-5.523-4.477-10-10-10s-10 4.477-10 10v11h-43.87c-5.523 0-10 4.477-10 10s4.477 10 10 10h107.74c5.523 0 10-4.477 10-10s-4.477-10-10-10z"/><path d="M375.714 0C330.74 0 293.57 34.033 288.59 77.697h-240c-4.044 0-7.69 2.437-9.24 6.173-1.547 3.736-.69 8.038 2.168 10.898l165.694 165.694v174.953c0 5.523 4.477 10 10 10s10-4.477 10-10V260.462l99.834-99.834c14.338 9.562 31.3 14.765 48.667 14.765 48.356 0 87.697-39.34 87.697-87.697C463.41 39.34 424.07 0 375.714 0zm-158.5 242.178L72.73 97.698h288.962l-144.48 144.48zm158.5-86.784c-12.06 0-23.87-3.238-34.174-9.258l14.24-14.24 37.34-37.105c2.875-2.854 3.742-7.16 2.198-10.905s-5.195-6.188-9.245-6.188H308.754C313.602 45.093 341.784 20 375.714 20c37.328 0 67.697 30.37 67.697 67.697 0 37.328-30.368 67.697-67.696 67.697z"/></svg>