<svg xmlns="http://www.w3.org/2000/svg" viewBox="0 0 480 480"><path d="M471.984 125.576l-33.807-6.845v-11.773c0-5.05-3.763-9.306-8.773-9.925l-56.89-7.03c-28.955-41.117-76.78-68.035-130.778-68.035-55.102 0-103.782 28.022-132.537 70.564l-58.143 4.456c-5.21.4-9.236 4.744-9.236 9.97v11.565l-33.864 7.067c-4.634.97-7.956 5.055-7.956 9.79v312.656c0 2.866 1.23 5.594 3.376 7.492 1.838 1.625 4.198 2.508 6.623 2.508.407 0 .816-.024 1.226-.075L240 429.69l228.773 28.268c.41.05.82.075 1.227.075 2.426 0 4.785-.883 6.623-2.508 2.148-1.898 3.377-4.626 3.377-7.492V135.377c0-4.758-3.353-8.857-8.016-9.8zm-53.806-9.78v277.968L250 368.364v-26.89c84.317-4.315 151.59-74.276 151.59-159.656 0-25.12-5.833-48.902-16.203-70.073l32.79 4.052zM229.705 42.49c3.967-.34 7.98-.524 12.033-.524 33.854 0 64.935 12.096 89.156 32.186 2.757 46.79-40.508 55.317-42.31 55.65-4.17.732-7.454 3.997-8.158 8.172-.704 4.175 1.27 8.326 4.97 10.386 1.405.804 34.467 20.31 40.93 73.872 2.51 20.69-2.4 36.018-14.588 45.557-2.428 1.898-4.936 3.402-7.323 4.59.1-9.623-1.78-21.416-9.75-29.923-8.42-8.99-21.07-11.982-37.604-8.896-40.334 7.545-71.862-17.586-73.86-19.222-13.535-12.57-19.71-23.708-17.39-31.373 4.226-13.972 33.433-21.65 43.32-23.24.28-.043.56-.1.836-.168.34-.084 8.397-2.096 16.77-5.96 13.397-6.185 20.816-13.99 22.05-23.2 2.272-16.954-17.193-27.808-23.594-31.376-9.527-5.306-14.555-11.376-15.37-18.556-1.623-14.303 13.08-31.532 19.883-37.975zM230 410.772l-210 25.95V143.505l21.822-4.554v266.436c0 2.913 1.27 5.68 3.478 7.58 1.827 1.572 4.145 2.42 6.52 2.42.498 0 .997-.037 1.495-.112L230 388.59v22.183zm0-42.41l-168.178 25.4V116.22l35.41-2.714c-9.84 20.727-15.355 43.887-15.355 68.313 0 84.203 65.435 153.404 148.123 159.433v27.11zM101.877 181.82c0-62.282 40.93-115.176 97.3-133.224-5.905 9.65-10.628 21.6-9.236 34.057 1.553 13.89 10.138 25.275 25.515 33.84 12.65 7.053 13.502 11.243 13.508 11.243-.58 3.024-11.46 9.254-23.426 12.313-6.972 1.156-50.463 9.44-58.86 37.092-4.823 15.876 2.954 33.386 23.116 52.043.09.084.183.166.277.246 1.59 1.367 39.547 33.35 90.663 23.793 9.367-1.75 15.865-.778 19.317 2.89 6.387 6.778 4.19 22.87 2.924 27.947-.81 3.182-.01 6.56 2.145 9.036 1.91 2.196 4.668 3.437 7.543 3.437.368 0 .738-.02 1.108-.062.992-.11 24.46-2.93 39.99-22.55 10.92-13.798 15.1-31.997 12.42-54.09-4.768-39.516-22.354-63.72-35.564-76.708 3.862-1.86 8.01-4.223 12.118-7.196 10.884-7.878 23.137-21.26 27.034-42.823 19.873 24.156 31.82 55.067 31.82 88.717 0 77.123-62.736 139.867-139.852 139.867-77.12 0-139.86-62.744-139.86-139.867zM460 436.722l-210-25.95V388.59l176.685 26.686c.498.075.997.112 1.493.112 2.377 0 4.695-.848 6.52-2.42 2.21-1.9 3.48-4.667 3.48-7.58v-266.25L460 143.554v293.167z"/><path d="M189.6 264.314c-3.905-3.904-10.237-3.904-14.142 0-3.905 3.905-3.905 10.237 0 14.142l12.64 12.64c1.952 1.95 4.51 2.928 7.07 2.928 2.56 0 5.12-.977 7.07-2.93 3.906-3.904 3.906-10.236 0-14.142L189.6 264.314zM242.126 274.817h-18.433c-5.523 0-10 4.477-10 10s4.477 10 10 10h18.433c5.522 0 10-4.478 10-10 0-5.523-4.478-10-10-10zM355.157 169.51c4.845-2.652 6.624-8.73 3.974-13.574l-10.66-19.488c-2.65-4.844-8.727-6.622-13.573-3.974-4.845 2.65-6.624 8.728-3.974 13.573l10.66 19.488c1.818 3.32 5.246 5.202 8.783 5.202 1.622 0 3.268-.395 4.79-1.228z"/></svg>