<svg xmlns="http://www.w3.org/2000/svg" viewBox="0 0 479.999 479.999"><path d="M471.982 102.27l-33.804-6.835V83.662c0-4.946-3.616-9.15-8.507-9.888L241.494 45.358c-.12-.02-.238-.02-.358-.034-.204-.023-.406-.048-.612-.06-.162-.008-.322-.005-.483-.005-.196-.002-.39-.005-.587.006-.177.01-.35.032-.526.052-.14.015-.28.02-.42.04L50.33 73.774c-4.892.738-8.508 4.94-8.508 9.888v11.563L7.96 102.282c-4.637.967-7.96 5.054-7.96 9.79v312.67c0 2.866 1.23 5.594 3.376 7.492 1.838 1.625 4.198 2.508 6.623 2.508.407 0 .816-.025 1.226-.075L240 406.397l228.773 28.27c.41.05.82.075 1.227.075 2.425 0 4.785-.883 6.623-2.508 2.147-1.898 3.376-4.626 3.376-7.492v-312.67c0-4.76-3.354-8.86-8.018-9.802zM230 387.48L20 413.43V120.203l21.822-4.547V382.11c0 2.914 1.27 5.682 3.478 7.582 1.827 1.57 4.145 2.42 6.52 2.42.498 0 .997-.038 1.495-.113L230 365.313v22.167zm0-42.392l-168.178 25.4V92.264L230 66.87v278.218zm20-278.22l168.178 25.397v278.222L250 345.087V66.87zM460 413.43l-210-25.95v-22.166L426.685 392c.497.074.997.11 1.494.11 2.375 0 4.694-.847 6.52-2.418 2.21-1.9 3.48-4.668 3.48-7.58V115.838l21.82 4.413V413.43z"/></svg>