<svg xmlns="http://www.w3.org/2000/svg" viewBox="0 0 58.828 58.828"><path d="M17.082 27.413c0 2.206 1.794 4 4 4s4-1.794 4-4-1.794-4-4-4-4 1.794-4 4zm6 0c0 1.103-.897 2-2 2s-2-.897-2-2 .897-2 2-2 2 .897 2 2zM19.4 45.583c-5.367.446-10.087-3.553-10.533-8.912-.045-.55-.518-.978-1.08-.912-.55.045-.958.528-.912 1.08.51 6.128 5.662 10.778 11.706 10.778.327 0 .655-.013.985-.04.55-.046.96-.53.913-1.08-.044-.55-.514-.97-1.08-.913z"/><path d="M58.633 33.367c.363-1.113.214-2.318-.41-3.308l-9.666-15.305c-1.067-1.69-3.287-2.277-5.068-1.328l-.465.26c-.045-.037-.094-.082-.137-.112-.213-.217-.802-.795-1.735-1.546-8.396-6.76-20.355-7.476-29.76-1.78C5.93 13.56 2.497 17.814 1.21 22.833c-.198.59-4.71 14.59 5.072 25.407.472.58 2.992 2.82 14.154 3.806 2.717.24 5.476.36 8.268.36 5.42 0 10.965-.452 16.564-1.353 4.663-.75 8.362-1.596 10.995-2.515.288-.1.515-.327.615-.615.1-.285 2.405-7.034.133-12.087-.017-.038-.036-.075-.058-.11l-.153-.25c.86-.423 1.526-1.167 1.833-2.11zm-3.5 13.443c-2.49.82-5.912 1.582-10.183 2.27-8.32 1.337-16.51 1.665-24.338.974-10.668-.94-12.75-3.048-12.758-3.048-.02-.028-.044-.057-.067-.083C-1.228 36.985 3.06 23.6 3.127 23.4c1.17-4.562 4.3-8.41 9.302-11.44 8.687-5.258 19.725-4.605 27.47 1.63.585.47 1.02.865 1.29 1.122l-8.598 4.8c-.42.233-.87.406-1.334.51l-.274.064c-1.55.36-4.146.957-8.96-.033-2.6-.534-5.198.473-6.79 2.627-.2.27-.377.55-.532.836-1.05 1.94-1.086 4.228-.085 6.217.036.072.06.146.1.217v.002c.114.208.234.416.365.633.614 1.013 1.346 1.95 2.165 2.812 2.26 2.377 5.22 4.126 8.5 4.947.204.05.44.117.694.188l.184.05c1.908.537 5.065 1.424 9.747 1.424 4.615 0 10.71-.862 18.55-3.77l.292.48c1.6 3.632.363 8.584-.08 10.094zm-19.275-8.83c-4.148-.063-6.98-.844-8.7-1.327-.253-.07-.475-.132-.685-.187l-.24-.064c-2.293-.574-4.4-1.665-6.17-3.123-1.292-1.064-2.41-2.315-3.27-3.733-.115-.19-.223-.375-.323-.56-.336-.613-.526-1.273-.572-1.938-.078-1.11.242-2.233.945-3.185.13-.176.27-.337.42-.49.046-.05.096-.093.144-.14.106-.1.214-.198.326-.288.06-.047.12-.09.18-.135.11-.08.226-.157.343-.227.062-.037.123-.075.186-.11.134-.072.273-.135.413-.194.05-.02.097-.044.146-.063.193-.073.39-.134.59-.18.035-.01.072-.013.108-.02.164-.035.33-.062.5-.078.068-.008.138-.01.208-.013.118-.006.236-.007.356-.004.285.006.573.03.86.088 1.314.27 2.484.43 3.527.51.35 7.035 4.598 12.875 10.708 15.46zm20.874-5.234c-.155.475-.48.832-.918 1.005-.508.202-.987.37-1.48.552-.678.252-1.35.5-2 .72-.272.093-.533.174-.8.26-.655.215-1.306.424-1.933.61-.23.067-.452.125-.68.19-.642.18-1.278.355-1.89.506-.187.046-.364.083-.547.126-.635.15-1.263.292-1.865.412-.137.027-.267.048-.403.074-.417.08-.82.146-1.222.212-8.572-.006-15.337-6.445-15.843-14.835 1.98-.03 3.368-.334 4.283-.544l.265-.06c.652-.148 1.28-.39 1.87-.718l9.796-5.468h.002l1.08-.604c.85-.452 1.91-.168 2.42.64l9.667 15.305c.3.476.374 1.08.2 1.618z"/></svg>