<svg xmlns="http://www.w3.org/2000/svg" viewBox="0 0 282.732 282.732"><path d="M178.125 263.12v-9.376H98.438v-4.688h79.688V220.93c0-25.846-21.028-46.874-46.875-46.874h-23.437v-4.688c0-7.753-6.31-14.063-14.063-14.063s-14.063 6.31-14.063 14.063v4.688H56.25c-25.847 0-46.875 21.028-46.875 46.875v28.126h79.688v4.688H9.375v9.375c0 5.17-4.205 9.374-9.375 9.374v9.375h187.5v-9.376c-5.17 0-9.375-4.205-9.375-9.375zM93.75 164.68c2.59 0 4.69 2.1 4.69 4.69v4.687h-9.376v-4.688c0-2.588 2.1-4.69 4.687-4.69zm-75 75v-18.75c0-20.676 16.823-37.5 37.5-37.5h75.001c20.678 0 37.5 16.824 37.5 37.5v18.75h-150zm-2.517 32.814c1.603-2.76 2.517-5.962 2.517-9.375h150c0 3.412.914 6.613 2.517 9.374H16.233zM267.19 46.074h-.002c0 5.19-2.578 10.008-6.895 12.88-2.55 1.707-5.517 2.603-8.587 2.603H206.25l-49.786 13.406c-1.59.436-3.24.656-4.903.656-3.444 0-6.247-2.804-6.247-6.25v-1.377c0-2.27 1.233-4.364 3.216-5.466l36.562-20.31-4.552-8.195-7.378 4.097h-21.764c-4.542 0-9.028.726-13.34 2.165L103.74 51.722c-.914.305-1.866.46-2.827.46h-2.92c-4.927 0-8.93-4.004-8.93-8.93 0-3.85 2.452-7.257 6.113-8.48l41.156-13.72c3.356-1.117 6.848-1.684 10.378-1.684h107.175l28.847-9.62-2.967-8.886-27.398 9.13H146.71c-4.543 0-9.03.728-13.342 2.167l-41.16 13.724c-7.49 2.494-12.52 9.473-12.52 17.367 0 10.093 8.213 18.306 18.305 18.306h2.92c1.97 0 3.92-.314 5.79-.942l34.312-11.433c3.36-1.12 6.853-1.686 10.383-1.686h4.89l-12.315 6.84c-4.955 2.755-8.034 7.987-8.034 13.658v1.378c0 8.616 7.007 15.623 15.622 15.623 2.503 0 4.987-.333 7.373-.99l47.944-13.072h44.826c4.927 0 9.694-1.443 13.786-4.176 6.54-4.355 10.59-11.475 11.03-19.26h4.73v-9.376H267.19v7.956zM89.063 103.745h9.375v28.125h-9.375zM50.663 119.65l19.883 19.882-6.63 6.63-19.882-19.884zM28.125 155.306H56.25v9.375H28.125zM131.25 155.306h28.125v9.375H131.25zM123.585 146.167l-6.63-6.63 19.885-19.882 6.63 6.63z"/></svg>