<svg xmlns="http://www.w3.org/2000/svg" viewBox="0 0 512 512"><path d="M97.493 242.67c-12.638 8.824-22.016 21.778-26.402 36.49-1.34 4.514 1.23 9.267 5.744 10.615.81.24 1.638.358 2.44.358 3.68 0 7.075-2.398 8.176-6.1 3.285-11.026 10.325-20.746 19.814-27.367 3.866-2.697 4.804-8.02 2.108-11.878-2.688-3.866-7.996-4.822-11.88-2.117z"/><path d="M198.306 239.795c3.243 3.413 8.66 3.54 12.066.29 3.405-3.25 3.54-8.653.282-12.066-19.524-20.48-45.85-31.754-74.12-31.754-56.466 0-102.4 45.935-102.4 102.4 0 6.29.57 12.578 1.697 18.68.76 4.112 4.344 6.988 8.38 6.988.513 0 1.034-.05 1.563-.145 4.634-.854 7.697-5.31 6.844-9.942-.947-5.086-1.417-10.334-1.417-15.582 0-47.053 38.28-85.333 85.333-85.333 23.56 0 45.5 9.404 61.773 26.462zM246.605 128.862c2.185 0 4.37-.836 6.033-2.5l24.14-24.132c3.338-3.336 3.338-8.738 0-12.075-3.327-3.328-8.73-3.328-12.065 0l-24.14 24.14c-3.338 3.33-3.338 8.73 0 12.067 1.663 1.664 3.847 2.5 6.032 2.5zM204.578 102.306c1.067.444 2.176.657 3.268.657 3.345 0 6.52-1.98 7.885-5.274l6.538-15.762c1.8-4.36-.265-9.353-4.617-11.153-4.368-1.81-9.352.265-11.152 4.617l-6.537 15.77c-1.8 4.352.266 9.344 4.618 11.144zM193.766 188.518c-2.628 3.917-1.587 9.216 2.32 11.844 3.918 2.637 9.217 1.587 11.845-2.32 22.273-33.18 59.384-52.976 99.27-52.976 65.868 0 119.466 53.59 119.466 119.467 0 10.83-1.45 21.547-4.292 31.863-1.254 4.54 1.408 9.242 5.956 10.496.75.213 1.52.307 2.27.307 3.746 0 7.177-2.484 8.226-6.264 3.25-11.793 4.907-24.047 4.907-36.403C443.733 189.253 382.48 128 307.2 128c-45.577 0-87.987 22.622-113.434 60.518z"/><path d="M381.235 206.19c-3.95 2.578-5.06 7.86-2.492 11.81 9.02 13.842 13.79 29.936 13.79 46.533 0 4.71 3.814 8.533 8.533 8.533 4.71 0 8.533-3.823 8.533-8.533 0-19.917-5.727-39.228-16.556-55.85-2.576-3.95-7.858-5.07-11.81-2.492zM32.734 160.435l15.76 6.528c1.076.444 2.177.657 3.27.657 3.344 0 6.527-1.988 7.884-5.274 1.8-4.352-.265-9.344-4.617-11.153l-15.77-6.528c-4.377-1.81-9.352.265-11.144 4.617-1.808 4.352.257 9.344 4.618 11.153zM71.62 126.362c1.673 1.664 3.85 2.5 6.033 2.5 2.185 0 4.37-.836 6.033-2.5 3.337-3.336 3.337-8.738 0-12.066l-24.14-24.14c-3.328-3.33-8.73-3.33-12.066 0-3.328 3.336-3.328 8.737 0 12.074l24.14 24.132zM8.533 213.342l34.133-.01c4.71 0 8.533-3.813 8.533-8.524 0-4.72-3.824-8.533-8.534-8.533H8.533c-4.72 0-8.533 3.823-8.533 8.533s3.814 8.534 8.533 8.534zM468.625 283.247c-3.857-2.714-9.173-1.8-11.896 2.048-2.723 3.85-1.81 9.173 2.038 11.896 22.647 16 36.164 42.07 36.164 69.744 0 47.053-38.28 85.333-85.333 85.333H68.266c-28.237 0-51.2-22.963-51.2-51.2 0-28.237 22.963-51.2 51.2-51.2 4.71 0 8.533-3.823 8.533-8.533s-3.823-8.533-8.533-8.533C30.627 332.8 0 363.427 0 401.068c0 37.64 30.626 68.267 68.267 68.267H409.6c56.456 0 102.4-45.935 102.4-102.4 0-33.212-16.222-64.496-43.375-83.687zM108.527 97.698c1.365 3.285 4.54 5.265 7.893 5.265 1.084 0 2.193-.205 3.26-.65 4.352-1.808 6.426-6.8 4.617-11.152l-6.537-15.77c-1.8-4.35-6.793-6.425-11.145-4.616-4.352 1.8-6.426 6.793-4.617 11.153l6.53 15.77zM76.817 195.96c.58.127 1.152.178 1.724.178 3.97 0 7.527-2.782 8.347-6.818 7.278-35.532 38.92-61.32 75.246-61.32 16.785.01 32.742 5.333 46.123 15.403 3.78 2.825 9.114 2.065 11.955-1.698 2.834-3.763 2.075-9.114-1.69-11.947-16.366-12.305-35.865-18.816-56.387-18.825-44.4 0-83.072 31.53-91.964 74.957-.948 4.617 2.03 9.13 6.647 10.07zM162.133 93.875c4.71 0 8.533-3.823 8.533-8.533V51.2c0-4.71-3.823-8.533-8.533-8.533-4.72 0-8.533 3.823-8.533 8.533v34.142c0 4.71 3.814 8.533 8.533 8.533z"/></svg>