<svg xmlns="http://www.w3.org/2000/svg" viewBox="0 0 334.877 334.877"><path d="M333.196 156H317.13V82.09c0-17.72-14.416-32.134-32.135-32.134h-21.76l-22.27-40.04C237.57 3.8 231.112 0 224.107 0c-3.265 0-6.504.842-9.364 2.43L129.28 49.954H33.814C16.095 49.955 1.68 64.37 1.68 82.09V302.74c0 17.72 14.416 32.134 32.135 32.134h251.18c17.72 0 32.134-14.415 32.134-32.134V237.94h16.066V156zm-48.2-93.19c9.896 0 17.98 7.518 19.067 17.14H279.91l-9.524-17.14h14.61zm-64-49.147c3.014-1.69 7.07-.508 8.734 2.494l35.476 63.786H101.798l119.198-66.28zm83.28 289.08c0 10.63-8.652 19.28-19.282 19.28H33.814c-10.63 0-19.28-8.65-19.28-19.28V82.09c0-10.63 8.65-19.28 19.28-19.28h72.354L75.345 79.95H37.832c-3.554 0-6.427 2.88-6.427 6.427s2.873 6.427 6.427 6.427h266.443v63.2h-47c-21.825 0-39.588 17.765-39.588 39.59v2.764c0 21.826 17.764 39.59 39.59 39.59h46.998v64.794zm16.066-77.656h-63.067c-14.743 0-26.736-11.992-26.736-26.736v-2.763c0-14.743 11.992-26.736 26.736-26.736H320.34v56.237zm-43.38-27.59c0 7.84-6.35 14.19-14.19 14.19-7.842 0-14.19-6.35-14.19-14.19s6.35-14.19 14.19-14.19 14.19 6.355 14.19 14.19z"/></svg>