<svg xmlns="http://www.w3.org/2000/svg" viewBox="0 0 54.908 54.908"><path d="M54.615 19.123C47.372 11.88 37.725 7.89 27.455 7.89S7.536 11.878.292 19.123c-.39.39-.39 1.023 0 1.414s1.023.39 1.414 0C8.573 13.67 17.717 9.89 27.454 9.89s18.88 3.78 25.747 10.646c.196.195.452.293.708.293s.512-.1.707-.294c.39-.39.39-1.023 0-1.413z"/><path d="M6.17 25c-.39.39-.39 1.023 0 1.414.196.195.452.293.708.293s.512-.098.707-.293c10.955-10.956 28.78-10.956 39.737 0 .39.39 1.023.39 1.414 0s.39-1.023 0-1.414C37.002 13.266 17.906 13.264 6.17 25z"/><path d="M27.454 24.508c-5.825 0-11.295 2.263-15.404 6.37-.39.392-.39 1.024 0 1.415s1.023.39 1.414 0c3.73-3.73 8.7-5.785 13.99-5.785 5.29 0 10.26 2.055 13.99 5.785.195.195.45.293.707.293s.513-.098.708-.293c.39-.39.39-1.023 0-1.414-4.108-4.11-9.58-6.372-15.404-6.372zM27.454 33.916c-3.612 0-6.55 2.94-6.55 6.552s2.938 6.552 6.55 6.552c3.613 0 6.552-2.94 6.552-6.552s-2.94-6.552-6.552-6.552zm0 11.103c-2.51 0-4.55-2.043-4.55-4.553s2.04-4.552 4.55-4.552 4.552 2.042 4.552 4.552-2.042 4.552-4.552 4.552z"/></svg>