<svg xmlns="http://www.w3.org/2000/svg" viewBox="0 0 257.853 257.853"><path d="M6.02 103.222V251l11.46 6.37 64.54-40.124 91.35 40.608 7.007-.484 67.917-42.222 3.54-6.37V61l-11.46-6.37-64.542 40.124-24.522-10.9c2.407-6.428 3.605-12.365 3.605-17.854 0-36.393-29.607-66-66-66s-66 29.607-66 66c0 6.047 1.453 12.637 4.377 19.83L9.56 96.852l-3.54 6.37zM88.915 15c28.166 0 51 22.833 51 51s-51 76-51 76-51-47.834-51-76 22.833-51 51-51zM21.02 107.39l13.04-8.105c4.523 7.653 10.438 15.905 17.777 24.815 13.21 16.04 26.267 28.327 26.816 28.842l10.262 9.624 10.262-9.624c.55-.515 13.605-12.803 26.816-28.842 7.944-9.645 14.22-18.52 18.87-26.697l28.51 12.673 7.005-.484 56.457-35.098V204.61l-61 37.923-91.35-40.608-7.007.484-56.458 35.096V107.39zM118.915 65c0-16.542-13.458-30-30-30s-30 13.458-30 30 13.458 30 30 30 30-13.458 30-30zm-45 0c0-8.27 6.73-15 15-15s15 6.73 15 15-6.73 15-15 15-15-6.73-15-15z"/></svg>