<?xml version="1.0" encoding="utf-8"?>
<!-- Generator: Adobe Illustrator 19.2.0, SVG Export Plug-In . SVG Version: 6.00 Build 0)  -->
<svg version="1.1" id="Layer_1" xmlns="http://www.w3.org/2000/svg" xmlns:xlink="http://www.w3.org/1999/xlink" x="0px" y="0px"
	 viewBox="0 0 45.2 45.2" style="enable-background:new 0 0 45.2 45.2;" xml:space="preserve">
<style type="text/css">
	.st0{fill:#FB8564;}
</style>
<path class="st0" d="M22.6,11.3c-6.2,0-11.3,5.1-11.3,11.3s5.1,11.3,11.3,11.3c6.2,0,11.3-5.1,11.3-11.3S28.8,11.3,22.6,11.3
	L22.6,11.3z M22.6,7.9c-1.2,0-2.2-1-2.2-2.2V2.2c0-1.2,1-2.2,2.2-2.2s2.2,1,2.2,2.2v3.5C24.8,7,23.8,7.9,22.6,7.9z M22.6,37.2
	c-1.2,0-2.2,1-2.2,2.2V43c0,1.2,1,2.2,2.2,2.2c1.2,0,2.2-1,2.2-2.2v-3.5C24.8,38.2,23.8,37.2,22.6,37.2z M32.9,12.2
	c-0.9-0.9-0.9-2.3,0-3.1l2.5-2.5c0.9-0.9,2.3-0.9,3.1,0c0.9,0.9,0.9,2.3,0,3.1L36,12.2C35.2,13.1,33.8,13.1,32.9,12.2L32.9,12.2z
	 M12.2,32.9c-0.9-0.9-2.3-0.9-3.1,0l-2.5,2.5c-0.9,0.9-0.9,2.3,0,3.1c0.9,0.9,2.3,0.9,3.1,0l2.5-2.5C13.1,35.2,13.1,33.8,12.2,32.9
	L12.2,32.9z M37.2,22.6c0-1.2,1-2.2,2.2-2.2H43c1.2,0,2.2,1,2.2,2.2c0,1.2-1,2.2-2.2,2.2h-3.5C38.2,24.8,37.2,23.8,37.2,22.6z
	 M7.9,22.6c0-1.2-1-2.2-2.2-2.2H2.2c-1.2,0-2.2,1-2.2,2.2s1,2.2,2.2,2.2h3.5C7,24.8,7.9,23.8,7.9,22.6z M32.9,32.9
	c0.9-0.9,2.3-0.9,3.1,0l2.5,2.5c0.9,0.9,0.9,2.3,0,3.1s-2.3,0.9-3.1,0L32.9,36C32.1,35.2,32.1,33.8,32.9,32.9z M12.2,12.2
	c0.9-0.9,0.9-2.3,0-3.1L9.7,6.6c-0.9-0.9-2.3-0.9-3.1,0c-0.9,0.9-0.9,2.3,0,3.1l2.5,2.5C10,13.1,11.4,13.1,12.2,12.2z"/>
</svg>
