<svg id="7feae392-6bf8-4436-8d9e-310c822b5160" data-name="Layer 1" xmlns="http://www.w3.org/2000/svg" viewBox="0 0 45.16 45.16">
  <defs>
    <style>
      .\36 3ec717a-ffd8-488f-ab2b-373a771468fa {
        fill: #e7e9eb;
      }

      .\39 d506e86-2e9c-4685-b51a-aedd2c149e3b {
        fill: #fb8564;
      }
    </style>
  </defs>
  <title>star-half</title>
  <path class="63ec717a-ffd8-488f-ab2b-373a771468fa" d="M24.79,43V39.42a2.21,2.21,0,0,0-2.21-2.21v7.95A2.21,2.21,0,0,0,24.79,43Z" transform="translate(0 0)"/>
  <path class="63ec717a-ffd8-488f-ab2b-373a771468fa" d="M32.93,12.23a2.21,2.21,0,0,0,3.12,0l2.5-2.5a2.21,2.21,0,1,0-3.12-3.12l-2.5,2.5a2.21,2.21,0,0,0,0,3.12h0Z" transform="translate(0 0)"/>
  <path class="63ec717a-ffd8-488f-ab2b-373a771468fa" d="M33.89,22.58A11.32,11.32,0,0,0,22.58,11.27V33.89A11.32,11.32,0,0,0,33.89,22.58Z" transform="translate(0 0)"/>
  <path class="63ec717a-ffd8-488f-ab2b-373a771468fa" d="M43,20.37H39.42a2.21,2.21,0,1,0,0,4.41H43A2.21,2.21,0,1,0,43,20.37Z" transform="translate(0 0)"/>
  <path class="63ec717a-ffd8-488f-ab2b-373a771468fa" d="M36,32.93a2.21,2.21,0,0,0-3.12,3.12l2.5,2.5a2.21,2.21,0,0,0,3.12-3.12Z" transform="translate(0 0)"/>
  <path class="9d506e86-2e9c-4685-b51a-aedd2c149e3b" d="M12.23,12.23a2.2,2.2,0,0,0,0-3.12L9.73,6.61A2.21,2.21,0,0,0,6.61,9.73l2.49,2.5A2.2,2.2,0,0,0,12.23,12.23Z" transform="translate(0 0)"/>
  <path class="9d506e86-2e9c-4685-b51a-aedd2c149e3b" d="M2.21,24.79H5.74a2.21,2.21,0,1,0,0-4.41H2.21A2.21,2.21,0,1,0,2.21,24.79Z" transform="translate(0 0)"/>
  <path class="9d506e86-2e9c-4685-b51a-aedd2c149e3b" d="M20.37,39.42V43a2.21,2.21,0,0,0,2.21,2.21V37.21A2.21,2.21,0,0,0,20.37,39.42Z" transform="translate(0 0)"/>
  <g>
    <path class="63ec717a-ffd8-488f-ab2b-373a771468fa" d="M22.58,0V7.94a2.21,2.21,0,0,0,2.21-2.21V2.21A2.21,2.21,0,0,0,22.58,0Z" transform="translate(0 0)"/>
    <path class="9d506e86-2e9c-4685-b51a-aedd2c149e3b" d="M20.37,2.21V5.74a2.21,2.21,0,0,0,2.21,2.21V0A2.21,2.21,0,0,0,20.37,2.21Z" transform="translate(0 0)"/>
  </g>
  <path class="9d506e86-2e9c-4685-b51a-aedd2c149e3b" d="M11.27,22.58A11.33,11.33,0,0,0,22.58,33.89V11.27h0A11.32,11.32,0,0,0,11.27,22.58Z" transform="translate(0 0)"/>
  <path class="9d506e86-2e9c-4685-b51a-aedd2c149e3b" d="M12.23,32.93a2.2,2.2,0,0,0-3.12,0l-2.5,2.5a2.21,2.21,0,0,0,3.12,3.12l2.5-2.5a2.2,2.2,0,0,0,0-3.12h0Z" transform="translate(0 0)"/>
</svg>
