<svg id="7b40808d-8dae-49cb-86e9-01ae3ef12573" data-name="Layer 1" xmlns="http://www.w3.org/2000/svg" viewBox="0 0 45.16 45.16">
  <defs>
    <style>
      .\30 603ca7a-7090-4540-b46a-cbd68a5150d6 {
        fill: #fff;
      }
    </style>
  </defs>
  <title>star-white</title>
  <path class="0603ca7a-7090-4540-b46a-cbd68a5150d6" d="M22.58,11.27A11.31,11.31,0,1,0,33.89,22.58,11.32,11.32,0,0,0,22.58,11.27h0Zm0-3.33a2.21,2.21,0,0,1-2.21-2.21V2.21a2.21,2.21,0,1,1,4.41,0V5.74A2.21,2.21,0,0,1,22.58,7.94Zm0,29.27a2.21,2.21,0,0,0-2.21,2.21V43a2.21,2.21,0,1,0,4.41,0V39.42A2.21,2.21,0,0,0,22.58,37.22Zm10.35-25a2.21,2.21,0,0,1,0-3.12l2.5-2.5a2.21,2.21,0,1,1,3.12,3.12L36,12.23a2.21,2.21,0,0,1-3.12,0h0Zm-20.7,20.7a2.2,2.2,0,0,0-3.12,0l-2.5,2.5a2.21,2.21,0,1,0,3.12,3.12l2.5-2.5a2.2,2.2,0,0,0,0-3.12h0Zm25-10.35a2.21,2.21,0,0,1,2.21-2.21H43a2.21,2.21,0,1,1,0,4.41H39.42A2.21,2.21,0,0,1,37.22,22.58Zm-29.27,0a2.21,2.21,0,0,0-2.21-2.21H2.21a2.21,2.21,0,1,0,0,4.41H5.74A2.21,2.21,0,0,0,7.94,22.58Zm25,10.35a2.21,2.21,0,0,1,3.12,0l2.5,2.5a2.21,2.21,0,0,1-3.12,3.12L32.93,36A2.21,2.21,0,0,1,32.93,32.93Zm-20.7-20.7a2.2,2.2,0,0,0,0-3.12L9.73,6.61A2.21,2.21,0,0,0,6.61,9.73l2.49,2.5A2.2,2.2,0,0,0,12.23,12.23Z"/>
</svg>
