<svg xmlns="http://www.w3.org/2000/svg" viewBox="0 0 266.533 266.533"><path d="M133.267 0C59.783 0 0 59.783 0 133.267c0 4.142 3.357 7.5 7.5 7.5s7.5-3.358 7.5-7.5C15 68.054 68.054 15 133.267 15s118.267 53.054 118.267 118.267-53.054 118.267-118.267 118.267c-24.152 0-47.378-7.23-67.165-20.91-19.342-13.37-34.136-31.938-42.784-53.7-1.53-3.848-5.893-5.73-9.74-4.2-3.85 1.53-5.73 5.89-4.2 9.74 9.745 24.52 26.41 45.44 48.194 60.5 22.307 15.42 48.48 23.57 75.695 23.57 73.483 0 133.267-59.783 133.267-133.267S206.75 0 133.267 0z"/><path d="M133.267 54.53c-43.416 0-78.737 35.32-78.737 78.737s35.32 78.738 78.737 78.738 78.737-35.322 78.737-78.738c0-28.5-15.47-54.852-40.37-68.77-3.616-2.024-8.184-.73-10.205 2.886-2.022 3.616-.73 8.185 2.887 10.206 20.162 11.27 32.688 32.604 32.688 55.677 0 35.145-28.593 63.738-63.737 63.738S69.53 168.412 69.53 133.267 98.125 69.53 133.27 69.53c4.143 0 7.5-3.36 7.5-7.5s-3.36-7.5-7.5-7.5z"/><path d="M106.53 133.267c0 14.742 11.994 26.735 26.736 26.735S160 148.008 160 133.267s-11.992-26.735-26.734-26.735-26.735 11.993-26.735 26.735zm38.472 0c0 6.47-5.265 11.735-11.735 11.735s-11.735-5.265-11.735-11.735 5.265-11.735 11.735-11.735 11.735 5.264 11.735 11.735z"/></svg>