<svg xmlns="http://www.w3.org/2000/svg" viewBox="0 0 70 70"><path d="M10 50H5c-2.8 0-5 2.2-5 5s2.2 5 5 5h5c2.8 0 5-2.2 5-5S12.8 50 10 50zM10 30H5c-2.8 0-5 2.2-5 5s2.2 5 5 5h5c2.8 0 5-2.2 5-5S12.8 30 10 30zM10 10H5c-2.8 0-5 2.2-5 5s2.2 5 5 5h5c2.8 0 5-2.2 5-5S12.8 10 10 10zM30 20h35c2.8 0 5-2.2 5-5s-2.2-5-5-5H30c-2.8 0-5 2.2-5 5S27.2 20 30 20zM65 30H30c-2.8 0-5 2.2-5 5s2.2 5 5 5h35c2.8 0 5-2.2 5-5S67.8 30 65 30zM65 50H30c-2.8 0-5 2.2-5 5s2.2 5 5 5h35c2.8 0 5-2.2 5-5S67.8 50 65 50z" fill="#030104"/></svg>