<svg xmlns="http://www.w3.org/2000/svg" viewBox="0 0 208.661 208.661"><path d="M180.734 116.892c-1.007-1.882-.5-4.233 1.175-5.554 9.77-7.697 10.3-34.01-8.553-34.01h-48.99c-9.59 0-15.656-10.324-10.985-18.7 5.74-10.292 9.922-21.717 13.94-34.52C131.66 10.277 122.94 0 112.838 0c-5.384 0-11.157 2.91-15.564 9.756C84.603 29.448 75.68 52.076 63.252 64.13c-9.818 9.516-43.17 28.935-43.17 30.14v79.824c0 2.254 1.727 4.17 3.955 4.51l28.828 4.404c.643.1 1.283.34 1.827.696 25.968 17.054 49.343 24.957 68.432 24.957 5.144 0 9.98-.573 14.47-1.696 22.35-5.586 23.77-19.317 22.86-26.447-.293-2.302 1.165-4.408 3.407-5.006 11.945-3.18 12.496-19.43 8.712-27.307-1.057-2.2-.042-4.788 2.108-5.944 8.914-4.793 9.573-18.796 6.054-25.368z"/></svg>