<?xml version="1.0" encoding="iso-8859-1"?>
<!-- Generator: Adobe Illustrator 16.0.0, SVG Export Plug-In . SVG Version: 6.00 Build 0)  -->
<!DOCTYPE svg PUBLIC "-//W3C//DTD SVG 1.1//EN" "http://www.w3.org/Graphics/SVG/1.1/DTD/svg11.dtd">
<svg version="1.1" id="Capa_1" xmlns="http://www.w3.org/2000/svg" xmlns:xlink="http://www.w3.org/1999/xlink" x="0px" y="0px"
	 width="363.03px" height="363.03px" viewBox="0 0 363.03 363.03" style="enable-background:new 0 0 363.03 363.03;"
	 xml:space="preserve">
<g>
	<g>
		<path style="fill:#030303;" d="M181.51,0C129.656,0,82.842,21.894,49.738,56.883c-1.558-0.397-3.162-0.678-4.849-0.678
			c-10.778,0-19.516,8.74-19.516,19.521c0,3.408,0.949,6.556,2.485,9.343c-17.614,27.967-27.855,61.025-27.855,96.449
			c0,100.082,81.43,181.512,181.512,181.512c100.089,0,181.513-81.43,181.513-181.512C363.022,81.43,281.604,0,181.51,0z
			 M181.51,351.32c-93.624,0-169.803-76.176-169.803-169.802c0-32.299,9.063-62.51,24.779-88.238
			c2.553,1.224,5.375,1.967,8.397,1.967c10.778,0,19.516-8.737,19.516-19.521c0-4.755-1.767-9.061-4.603-12.448
			C90.67,31.506,133.807,11.71,181.498,11.71c93.632,0,169.802,76.17,169.802,169.803C351.312,275.145,275.142,351.32,181.51,351.32
			z"/>
		<path style="fill:#030303;" d="M181.51,58.552c-67.799,0-122.96,55.156-122.96,122.96c0,56.699,38.622,104.416,90.902,118.574
			c0.764,10.092,9.095,18.052,19.37,18.052c8.829,0,16.219-5.907,18.617-13.97c65.037-3.121,117.025-56.865,117.025-122.656
			C304.47,113.714,249.313,58.552,181.51,58.552z M187.259,292.476c-2.588-7.747-9.818-13.374-18.438-13.374
			c-7.136,0-13.314,3.877-16.717,9.601c-47.094-12.951-81.845-56.036-81.845-107.184c0-61.346,49.904-111.25,111.25-111.25
			c61.349,0,111.249,49.904,111.249,111.25C292.759,240.923,245.929,289.457,187.259,292.476z"/>
		<path style="fill:#030303;" d="M226.79,132.38c0.354-1.464,0.589-2.968,0.589-4.543c0-10.779-8.731-19.516-19.521-19.516
			c-6.119,0-11.522,2.882-15.096,7.296c-3.671-0.621-7.411-1.018-11.253-1.018c-36.898,0-66.918,30.02-66.918,66.923
			c0,36.904,30.02,66.924,66.918,66.924c36.909,0,66.929-30.02,66.929-66.924C248.438,162.085,240.062,144.62,226.79,132.38z
			 M181.51,236.737c-30.44,0-55.208-24.771-55.208-55.219c0-30.449,24.768-55.217,55.208-55.217c2.353,0,4.665,0.2,6.947,0.486
			c-0.023,0.357-0.114,0.692-0.114,1.055c0,10.779,8.742,19.516,19.516,19.516c4.883,0,9.297-1.855,12.717-4.82
			c9.972,9.995,16.153,23.787,16.153,38.98C236.729,211.961,211.952,236.737,181.51,236.737z"/>
		<circle style="fill:#030303;" cx="181.51" cy="181.513" r="19.516"/>
	</g>
</g>
<g>
</g>
<g>
</g>
<g>
</g>
<g>
</g>
<g>
</g>
<g>
</g>
<g>
</g>
<g>
</g>
<g>
</g>
<g>
</g>
<g>
</g>
<g>
</g>
<g>
</g>
<g>
</g>
<g>
</g>
</svg>
