<svg xmlns="http://www.w3.org/2000/svg" viewBox="0 0 457.01 457.01"><path d="M228.504 0C132.978 0 55.262 77.716 55.262 173.242c0 72.85 36.307 141.856 82 198.566 39.92 49.544 79.412 80.427 81.073 81.717 2.992 2.324 6.58 3.485 10.17 3.485s7.178-1.16 10.17-3.485c1.66-1.29 41.152-32.173 81.072-81.717 45.716-56.737 82-125.737 82-198.566C401.748 77.716 324.032 0 228.505 0zm0 250.918c-45.706 0-82.89-37.185-82.89-82.89 0-45.708 37.184-82.893 82.89-82.893s82.892 37.185 82.892 82.892c0 45.706-37.185 82.89-82.892 82.89z"/></svg>