<svg xmlns="http://www.w3.org/2000/svg" viewBox="0 0 554.475 554.475"><path d="M504.902 533.053c3.264 6.117 2.244 11.832-3.06 17.136-2.448 2.447-5.716 3.67-9.792 3.67-2.45 0-4.896-.61-7.348-1.835l-125.46-73.44c-26.927 7.347-54.263 11.02-82.007 11.02-38.352 0-74.358-6.428-108.018-19.28S106.18 440.033 81.09 418c-25.093-22.03-44.88-47.938-59.365-77.724C7.242 310.49 0 278.666 0 244.803c0-33.456 7.242-65.076 21.726-94.86C36.21 120.16 55.998 94.25 81.09 72.22s54.468-39.475 88.128-52.327C202.878 7.04 238.885.613 277.238.613c38.35 0 74.358 6.427 108.016 19.28 33.66 12.85 63.037 30.293 88.13 52.325 25.093 22.032 44.882 47.94 59.362 77.724 14.484 29.784 21.73 61.404 21.73 94.86 0 37.128-8.98 72.318-26.93 105.57-17.95 33.252-43.25 61.506-75.89 84.764l53.246 97.917z" fill="#010002"/></svg>