<?xml version="1.0" encoding="iso-8859-1"?>
<!-- Generator: Adobe Illustrator 19.0.0, SVG Export Plug-In . SVG Version: 6.00 Build 0)  -->
<svg version="1.1" id="Layer_1" xmlns="http://www.w3.org/2000/svg" xmlns:xlink="http://www.w3.org/1999/xlink" x="0px" y="0px"
	 viewBox="0 0 485 485" style="enable-background:new 0 0 485 485;" xml:space="preserve">
<g>
	<path d="M414.012,70.988C368.234,25.211,307.323,0,242.5,0S116.766,25.211,70.988,70.988S0,177.676,0,242.5
		s25.211,125.734,70.988,171.512S177.677,485,242.5,485s125.734-25.211,171.512-70.988S485,307.324,485,242.5
		S459.789,116.766,414.012,70.988z M242.5,455C125.327,455,30,359.673,30,242.5S125.327,30,242.5,30S455,125.327,455,242.5
		S359.673,455,242.5,455z"/>
	<path d="M360.377,124.623c-31.463-31.462-73.326-48.79-117.877-48.79s-86.414,17.327-117.877,48.79
		c-31.463,31.463-48.79,73.326-48.79,117.877s17.327,86.414,48.79,117.877c31.463,31.462,73.326,48.79,117.877,48.79
		s86.414-17.327,117.877-48.79c31.463-31.463,48.79-73.326,48.79-117.877S391.84,156.086,360.377,124.623z M242.5,379.167
		c-75.358,0-136.667-61.309-136.667-136.667S167.142,105.833,242.5,105.833S379.167,167.142,379.167,242.5
		S317.858,379.167,242.5,379.167z"/>
	<path d="M242.5,151.667c-50.086,0-90.833,40.748-90.833,90.833s40.747,90.833,90.833,90.833s90.833-40.748,90.833-90.833
		S292.586,151.667,242.5,151.667z M242.5,303.333c-33.543,0-60.833-27.29-60.833-60.833s27.29-60.833,60.833-60.833
		s60.833,27.29,60.833,60.833S276.043,303.333,242.5,303.333z"/>
</g>
<g>
</g>
<g>
</g>
<g>
</g>
<g>
</g>
<g>
</g>
<g>
</g>
<g>
</g>
<g>
</g>
<g>
</g>
<g>
</g>
<g>
</g>
<g>
</g>
<g>
</g>
<g>
</g>
<g>
</g>
</svg>
