<svg xmlns="http://www.w3.org/2000/svg" data-name="Capa 1" viewBox="0 0 896 896"><title>  tool</title><path data-name="settings" d="M863.2 382.8L774.5 368a334.3 334.3 0 0 0-28.1-75.1l56.8-70.4A39.2 39.2 0 0 0 802 171.7L766.7 132a39.2 39.2 0 0 0-50.2-7.2l-75.9 47.7a334 334 0 0 0-112-50.5L513.7 32.8A39.2 39.2 0 0 0 475.1 0h-53.2a39.1 39.1 0 0 0-38.6 32.8L368.3 122a333.8 333.8 0 0 0-94.2 39.1l-72.2-51.5a39.2 39.2 0 0 0-50.5 4.2l-37.6 37.6a39.2 39.2 0 0 0-4.1 50.5l51.6 72.3a334.7 334.7 0 0 0-38.8 93.5l-89.7 15A39.2 39.2 0 0 0 0 421.4v53.2a39.2 39.2 0 0 0 32.8 38.7l89.7 15a333.7 333.7 0 0 0 29.7 78.2L95.7 676.4a39.2 39.2 0 0 0 1.2 50.7l35.3 39.7A39.2 39.2 0 0 0 182.3 774l77-48.4a333.5 333.5 0 0 0 109 48.4l14.9 89.3A39.1 39.1 0 0 0 421.9 896h53.2a39.2 39.2 0 0 0 38.7-32.8L528.6 774a333.3 333.3 0 0 0 93.1-38.5l75.2 53.7A39.1 39.1 0 0 0 747.4 785l37.6-37.6a39.1 39.1 0 0 0 4.1-50.5L735.6 621.9a333 333 0 0 0 38.9-93.8l88.8-14.8A39.1 39.1 0 0 0 896 474.6V421.4A39.2 39.2 0 0 0 863.2 382.8ZM449.4 616a168 168 0 1 1 168-168C617.4 540.8 542.2 616 449.4 616Z" transform="translate(0 -0.01)"/></svg>