<svg id="d734042c-1483-4d35-b7e5-27e5f8023f9f" data-name="Capa 1" xmlns="http://www.w3.org/2000/svg" viewBox="0 0 896.03 896">
  <title>tool</title>
  <path id="721ef2da-6814-4f94-92b2-3c40d94dcb8d" data-name="settings" d="M863.24,382.77L774.48,368a334.34,334.34,0,0,0-28.11-75.1l56.82-70.45A39.16,39.16,0,0,0,802,171.73L766.69,132a39.2,39.2,0,0,0-50.2-7.17l-75.91,47.72a334,334,0,0,0-112-50.55L513.73,32.77A39.15,39.15,0,0,0,475.07,0h-53.2a39.07,39.07,0,0,0-38.61,32.76L368.33,122a333.81,333.81,0,0,0-94.21,39.14l-72.19-51.52a39.24,39.24,0,0,0-50.5,4.17l-37.58,37.61a39.2,39.2,0,0,0-4.14,50.5l51.64,72.33a334.67,334.67,0,0,0-38.84,93.51l-89.74,15A39.18,39.18,0,0,0,0,421.43v53.16a39.18,39.18,0,0,0,32.76,38.66l89.74,15a333.7,333.7,0,0,0,29.71,78.15L95.65,676.44a39.19,39.19,0,0,0,1.2,50.67l35.27,39.73A39.22,39.22,0,0,0,182.34,774l77-48.37a333.52,333.52,0,0,0,109,48.37l14.93,89.25A39.07,39.07,0,0,0,421.87,896h53.2a39.15,39.15,0,0,0,38.66-32.76L528.61,774a333.33,333.33,0,0,0,93.13-38.5l75.2,53.71A39.1,39.1,0,0,0,747.41,785l37.6-37.6a39.06,39.06,0,0,0,4.13-50.48L735.6,621.89a333,333,0,0,0,38.91-93.82l88.76-14.82A39.13,39.13,0,0,0,896,474.59V421.43A39.18,39.18,0,0,0,863.24,382.77ZM449.42,616a168,168,0,1,1,168-168C617.42,540.76,542.17,616,449.42,616Z" transform="translate(0 -0.01)"/>
</svg>
